<?xml version="1.0" encoding="UTF-8" standalone="no"?>
<!-- Created with Inkscape (http://www.inkscape.org/) -->

<svg
   width="74.071693mm"
   height="38.76091mm"
   viewBox="0 0 74.071683 38.760909"
   version="1.1"
   id="svg1"
   xml:space="preserve"
   inkscape:version="1.3.2 (091e20e, 2023-11-25, custom)"
   sodipodi:docname="ps5-Mute.svg"
   xmlns:inkscape="http://www.inkscape.org/namespaces/inkscape"
   xmlns:sodipodi="http://sodipodi.sourceforge.net/DTD/sodipodi-0.dtd"
   xmlns="http://www.w3.org/2000/svg"
   xmlns:svg="http://www.w3.org/2000/svg"><sodipodi:namedview
     id="namedview1"
     pagecolor="#00f044"
     bordercolor="#000000"
     borderopacity="0.25"
     inkscape:showpageshadow="2"
     inkscape:pageopacity="0.0"
     inkscape:pagecheckerboard="0"
     inkscape:deskcolor="#d1d1d1"
     inkscape:document-units="mm"
     inkscape:zoom="2.8284271"
     inkscape:cx="127.80955"
     inkscape:cy="25.986174"
     inkscape:window-width="2560"
     inkscape:window-height="1351"
     inkscape:window-x="-9"
     inkscape:window-y="-9"
     inkscape:window-maximized="1"
     inkscape:current-layer="svg1" /><defs
     id="defs1"><rect
       x="-6"
       y="-34"
       width="85"
       height="25.25"
       id="rect19" /><inkscape:perspective
       sodipodi:type="inkscape:persp3d"
       inkscape:vp_x="0 : 109.98513 : 1"
       inkscape:vp_y="0 : 999.99999 : 0"
       inkscape:vp_z="44.519231 : 109.98513 : 1"
       inkscape:persp3d-origin="22.259617 : 106.17965 : 1"
       id="perspective4" /><rect
       x="-6"
       y="-34"
       width="85"
       height="25.25"
       id="rect20" /><rect
       x="-6"
       y="-34"
       width="85"
       height="25.25"
       id="rect21" /><rect
       x="-6"
       y="-34"
       width="85"
       height="25.25"
       id="rect22" /></defs><g
     id="layer1"
     inkscape:label="Button Mute"><g
       id="rect2"
       inkscape:label="Style - Outline (White)"
       style="display:none"><path
         style="color:#000000;fill:#fbfbfb;stroke-linecap:round;stroke-linejoin:round;-inkscape-stroke:none"
         d="M 5.9218227,1.140555 H 68.149868 c 2.648822,0 4.781268,2.1324454 4.781268,4.7812677 0,2.6488222 -2.132446,4.7812673 -4.781268,4.7812673 H 5.9218227 c -2.6488223,0 -4.7812677,-2.1324451 -4.7812677,-4.7812673 0,-2.6488223 2.1324454,-4.7812677 4.7812677,-4.7812677 z"
         id="path5"
         inkscape:label="Color" /><path
         style="color:#000000;display:inline;fill:#000000;stroke-linecap:round;stroke-linejoin:round;-inkscape-stroke:none"
         d="m 5.921875,0.140625 c -3.1855219,0 -5.78125,2.5957281 -5.78125,5.78125 0,3.1855219 2.5957281,5.78125 5.78125,5.78125 h 62.228516 c 3.185521,0 5.78125,-2.5957281 5.78125,-5.78125 0,-3.1855219 -2.595729,-5.78125 -5.78125,-5.78125 z m 0,2 h 62.228516 c 2.112117,0 3.78125,1.6691326 3.78125,3.78125 0,2.1121174 -1.669133,3.78125 -3.78125,3.78125 H 5.921875 c -2.1121174,0 -3.78125,-1.6691326 -3.78125,-3.78125 0,-2.1121174 1.6691326,-3.78125 3.78125,-3.78125 z"
         id="path6"
         inkscape:label="Outline" /><path
         fill-rule="evenodd"
         clip-rule="evenodd"
         d="m 32.472885,31.176427 v -2.977309 l 4.918723,4.282952 h -3.613106 c -0.7211,0 -1.305617,-0.584534 -1.305617,-1.305643 z m -0.03088,3.131701 h 7.046832 l 1.12452,0.979258 h -3.019476 v 2.494316 h 2.98392 v 0.979206 h -6.94708 v -0.979206 h 2.98392 v -2.494316 h -4.172636 c -1.53229,0 -2.774442,-1.242178 -2.774442,-2.774452 v -4.662238 h 0.979222 v 4.662238 c 0,0.991486 0.803744,1.795194 1.79522,1.795194 z m 11.119724,-2.531686 0.97685,0.850602 c 8.72e-4,-0.03768 0.0034,-0.07605 0.0034,-0.114196 v -4.662222 h -0.979146 z m -11.08885,-9.655406 9.262756,8.065423 V 19.31462 c 0,-0.721077 -0.584542,-1.305637 -1.305624,-1.305637 h -6.65149 c -0.7211,0 -1.305642,0.58456 -1.305642,1.305637 z M 26.683613,21.274034 46.385529,38.429152 47.524813,37.111446 27.822897,19.956278 Z"
         fill="#0e141b"
         id="path7695"
         style="display:inline;fill:#000000;fill-opacity:1;stroke-width:0.652811"
         inkscape:label="Symbol Mute" /></g><g
       id="g9"
       inkscape:label="Style - Outline (Black)"
       style="display:none"><path
         style="color:#000000;fill:#000000;stroke-linecap:round;stroke-linejoin:round;-inkscape-stroke:none"
         d="M 5.9218227,1.140555 H 68.149868 c 2.648822,0 4.781268,2.1324454 4.781268,4.7812677 0,2.6488222 -2.132446,4.7812673 -4.781268,4.7812673 H 5.9218227 c -2.6488223,0 -4.7812677,-2.1324451 -4.7812677,-4.7812673 0,-2.6488223 2.1324454,-4.7812677 4.7812677,-4.7812677 z"
         id="path7"
         inkscape:label="Color" /><path
         style="color:#000000;display:inline;fill:#ffffff;stroke-linecap:round;stroke-linejoin:round;-inkscape-stroke:none"
         d="m 5.921875,0.140625 c -3.1855219,0 -5.78125,2.5957281 -5.78125,5.78125 0,3.1855219 2.5957281,5.78125 5.78125,5.78125 h 62.228516 c 3.185521,0 5.78125,-2.5957281 5.78125,-5.78125 0,-3.1855219 -2.595729,-5.78125 -5.78125,-5.78125 z m 0,2 h 62.228516 c 2.112117,0 3.78125,1.6691326 3.78125,3.78125 0,2.1121174 -1.669133,3.78125 -3.78125,3.78125 H 5.921875 c -2.1121174,0 -3.78125,-1.6691326 -3.78125,-3.78125 0,-2.1121174 1.6691326,-3.78125 3.78125,-3.78125 z"
         id="path8"
         inkscape:label="Outline" /><path
         fill-rule="evenodd"
         clip-rule="evenodd"
         d="m 32.472885,31.176427 v -2.977309 l 4.918723,4.282952 h -3.613106 c -0.7211,0 -1.305617,-0.584534 -1.305617,-1.305643 z m -0.03088,3.131701 h 7.046832 l 1.12452,0.979258 h -3.019476 v 2.494316 h 2.98392 v 0.979206 h -6.94708 v -0.979206 h 2.98392 v -2.494316 h -4.172636 c -1.53229,0 -2.774442,-1.242178 -2.774442,-2.774452 v -4.662238 h 0.979222 v 4.662238 c 0,0.991486 0.803744,1.795194 1.79522,1.795194 z m 11.119724,-2.531686 0.97685,0.850602 c 8.72e-4,-0.03768 0.0034,-0.07605 0.0034,-0.114196 v -4.662222 h -0.979146 z m -11.08885,-9.655406 9.262756,8.065423 V 19.31462 c 0,-0.721077 -0.584542,-1.305637 -1.305624,-1.305637 h -6.65149 c -0.7211,0 -1.305642,0.58456 -1.305642,1.305637 z M 26.683613,21.274034 46.385529,38.429152 47.524813,37.111446 27.822897,19.956278 Z"
         fill="#0e141b"
         id="path9"
         style="display:inline;fill:#ffffff;fill-opacity:1;stroke-width:0.652811"
         inkscape:label="Symbol Mute" /></g><g
       id="rect1"
       inkscape:label="Style - Transparent"
       style="display:inline"><path
         style="color:#000000;display:inline;fill:#808080;fill-opacity:0.501961;stroke-linecap:round;stroke-linejoin:round;-inkscape-stroke:none;paint-order:stroke fill markers"
         d="m 5.921875,0.140625 c -3.1855219,0 -5.78125,2.5957281 -5.78125,5.78125 0,3.1855219 2.5957281,5.78125 5.78125,5.78125 h 62.228516 c 3.185521,0 5.78125,-2.5957281 5.78125,-5.78125 0,-3.1855219 -2.595729,-5.78125 -5.78125,-5.78125 z m 0,2 h 62.228516 c 2.112117,0 3.78125,1.6691326 3.78125,3.78125 0,2.1121174 -1.669133,3.78125 -3.78125,3.78125 H 5.921875 c -2.1121174,0 -3.78125,-1.6691326 -3.78125,-3.78125 0,-2.1121174 1.6691326,-3.78125 3.78125,-3.78125 z"
         id="path2"
         inkscape:label="Outline" /><path
         style="color:#000000;fill:#fbfbfb;stroke-linecap:round;stroke-linejoin:round;-inkscape-stroke:none;paint-order:stroke fill markers"
         d="M 5.9218227,1.140555 H 68.149868 c 2.648822,0 4.781268,2.1324454 4.781268,4.7812677 0,2.6488222 -2.132446,4.7812673 -4.781268,4.7812673 H 5.9218227 c -2.6488223,0 -4.7812677,-2.1324451 -4.7812677,-4.7812673 0,-2.6488223 2.1324454,-4.7812677 4.7812677,-4.7812677 z"
         id="path3"
         inkscape:label="Color" /><path
         fill-rule="evenodd"
         clip-rule="evenodd"
         d="m 32.472885,31.176427 v -2.977309 l 4.918723,4.282952 h -3.613106 c -0.7211,0 -1.305617,-0.584534 -1.305617,-1.305643 z m -0.03088,3.131701 h 7.046832 l 1.12452,0.979258 h -3.019476 v 2.494316 h 2.98392 v 0.979206 h -6.94708 v -0.979206 h 2.98392 v -2.494316 h -4.172636 c -1.53229,0 -2.774442,-1.242178 -2.774442,-2.774452 v -4.662238 h 0.979222 v 4.662238 c 0,0.991486 0.803744,1.795194 1.79522,1.795194 z m 11.119724,-2.531686 0.97685,0.850602 c 8.72e-4,-0.03768 0.0034,-0.07605 0.0034,-0.114196 v -4.662222 h -0.979146 z m -11.08885,-9.655406 9.262756,8.065423 V 19.31462 c 0,-0.721077 -0.584542,-1.305637 -1.305624,-1.305637 h -6.65149 c -0.7211,0 -1.305642,0.58456 -1.305642,1.305637 z M 26.683613,21.274034 46.385529,38.429152 47.524813,37.111446 27.822897,19.956278 Z"
         fill="#0e141b"
         id="path4"
         style="display:inline;fill:#808080;fill-opacity:1;stroke-width:0.652811"
         inkscape:label="Symbol Mute" /></g></g></svg>
