<?xml version="1.0" encoding="UTF-8" standalone="no"?>
<!-- Created with Inkscape (http://www.inkscape.org/) -->

<svg
   width="54.769333mm"
   height="52.117496mm"
   viewBox="0 0 54.769332 52.117496"
   version="1.1"
   id="svg1"
   inkscape:version="1.3.2 (091e20e, 2023-11-25, custom)"
   sodipodi:docname="steamdeck-L5.svg"
   xmlns:inkscape="http://www.inkscape.org/namespaces/inkscape"
   xmlns:sodipodi="http://sodipodi.sourceforge.net/DTD/sodipodi-0.dtd"
   xmlns="http://www.w3.org/2000/svg"
   xmlns:svg="http://www.w3.org/2000/svg">
  <sodipodi:namedview
     id="namedview1"
     pagecolor="#72ffa7"
     bordercolor="#000000"
     borderopacity="0.25"
     inkscape:showpageshadow="2"
     inkscape:pageopacity="0.0"
     inkscape:pagecheckerboard="0"
     inkscape:deskcolor="#d1d1d1"
     inkscape:document-units="mm"
     inkscape:zoom="4.0515993"
     inkscape:cx="65.529678"
     inkscape:cy="99.590302"
     inkscape:window-width="2560"
     inkscape:window-height="1351"
     inkscape:window-x="-9"
     inkscape:window-y="-9"
     inkscape:window-maximized="1"
     inkscape:current-layer="layer1" />
  <defs
     id="defs1" />
  <g
     inkscape:label="Steam Deck L4 Button"
     id="layer1"
     transform="translate(-84.025059,-125.6411)"
     style="display:inline">
    <g
       id="rect2"
       inkscape:label="Style - Outline (White)"
       style="display:none">
      <path
         style="color:#000000;fill:#ffffff;stroke-linecap:round;stroke-linejoin:round;-inkscape-stroke:none"
         d="m 89.904938,126.52783 h 43.009572 c 2.76621,0 4.99315,2.11551 4.99315,4.7433 v 40.85744 c 0,2.62779 -2.22694,4.7433 -4.99315,4.7433 H 89.904938 c -2.766204,0 -4.993149,-2.11551 -4.993149,-4.7433 v -40.85744 c 0,-2.62779 2.226945,-4.7433 4.993149,-4.7433 z"
         id="path2"
         inkscape:label="Color" />
      <path
         style="color:#000000;display:inline;fill:#000000;stroke-linecap:round;stroke-linejoin:round;-inkscape-stroke:none"
         d="m 89.904297,125.64063 c -3.218298,0 -5.878906,2.50209 -5.878906,5.63085 v 40.85743 c 0,3.12876 2.660608,5.6289 5.878906,5.6289 h 43.009763 c 3.2183,0 5.88086,-2.50014 5.88086,-5.6289 v -40.85743 c 0,-3.12876 -2.66256,-5.63085 -5.88086,-5.63085 z m 0,1.77343 h 43.009763 c 2.31411,0 4.10742,1.73062 4.10742,3.85742 v 40.85743 c 0,2.1268 -1.79331,3.85546 -4.10742,3.85546 H 89.904297 c -2.314106,0 -4.105469,-1.72866 -4.105469,-3.85546 v -40.85743 c 0,-2.1268 1.791363,-3.85742 4.105469,-3.85742 z"
         id="path3"
         inkscape:label="Outline" />
      <text
         xml:space="preserve"
         style="font-weight:500;font-size:32.5227px;line-height:0;font-family:'open sans';-inkscape-font-specification:'open sans Medium';letter-spacing:-1.01634px;word-spacing:0px;display:none;fill:#000000;stroke:none;stroke-width:5.12169;stroke-linecap:round;stroke-linejoin:round;stroke-opacity:0.501961;paint-order:stroke fill markers"
         x="94.269936"
         y="163.19713"
         id="text12"
         inkscape:label="Symbol L5"
         transform="translate(-1.0956815e-6)"><tspan
           sodipodi:role="line"
           id="tspan12"
           style="fill:#000000;stroke:none;stroke-width:5.12169"
           x="0"
           y="0">L5</tspan></text>
      <text
         xml:space="preserve"
         style="font-weight:500;font-size:32.5227px;line-height:0;font-family:'open sans';-inkscape-font-specification:'open sans Medium';letter-spacing:-1.01634px;word-spacing:0px;display:inline;fill:#000000;stroke:none;stroke-width:5.12169;stroke-linecap:round;stroke-linejoin:round;stroke-opacity:0.501961;paint-order:stroke fill markers"
         x="94.074028"
         y="163.19713"
         id="text13"
         inkscape:label="Symbol L4"
         transform="translate(-1.0956815e-6)"><tspan
           sodipodi:role="line"
           id="tspan13"
           style="fill:#000000;stroke:none;stroke-width:5.12169"
           x="94.074028"
           y="163.19713">L4</tspan></text>
    </g>
    <g
       id="g11"
       inkscape:label="Style - Outline (Black)"
       style="display:none">
      <path
         style="color:#000000;fill:#000000;stroke-linecap:round;stroke-linejoin:round;-inkscape-stroke:none"
         d="m 89.904938,126.52783 h 43.009572 c 2.76621,0 4.99315,2.11551 4.99315,4.7433 v 40.85744 c 0,2.62779 -2.22694,4.7433 -4.99315,4.7433 H 89.904938 c -2.766204,0 -4.993149,-2.11551 -4.993149,-4.7433 v -40.85744 c 0,-2.62779 2.226945,-4.7433 4.993149,-4.7433 z"
         id="path9"
         inkscape:label="Color" />
      <path
         style="color:#000000;display:inline;fill:#ffffff;stroke-linecap:round;stroke-linejoin:round;-inkscape-stroke:none"
         d="m 89.904297,125.64063 c -3.218298,0 -5.878906,2.50209 -5.878906,5.63085 v 40.85743 c 0,3.12876 2.660608,5.6289 5.878906,5.6289 h 43.009763 c 3.2183,0 5.88086,-2.50014 5.88086,-5.6289 v -40.85743 c 0,-3.12876 -2.66256,-5.63085 -5.88086,-5.63085 z m 0,1.77343 h 43.009763 c 2.31411,0 4.10742,1.73062 4.10742,3.85742 v 40.85743 c 0,2.1268 -1.79331,3.85546 -4.10742,3.85546 H 89.904297 c -2.314106,0 -4.105469,-1.72866 -4.105469,-3.85546 v -40.85743 c 0,-2.1268 1.791363,-3.85742 4.105469,-3.85742 z"
         id="path10"
         inkscape:label="Outline" />
      <text
         xml:space="preserve"
         style="font-weight:500;font-size:32.5227px;line-height:0;font-family:'open sans';-inkscape-font-specification:'open sans Medium';letter-spacing:-1.01634px;word-spacing:0px;display:none;fill:#ffffff;stroke:none;stroke-width:5.12169;stroke-linecap:round;stroke-linejoin:round;stroke-opacity:0.501961;paint-order:stroke fill markers"
         x="94.269936"
         y="163.19713"
         id="text14"
         inkscape:label="Symbol L5"
         transform="translate(-1.0956815e-6)"><tspan
           sodipodi:role="line"
           id="tspan14"
           style="fill:#ffffff;stroke:none;stroke-width:5.12169"
           x="0"
           y="0">L5</tspan></text>
      <text
         xml:space="preserve"
         style="font-weight:500;font-size:32.5227px;line-height:0;font-family:'open sans';-inkscape-font-specification:'open sans Medium';letter-spacing:-1.01634px;word-spacing:0px;display:inline;fill:#ffffff;stroke:none;stroke-width:5.12169;stroke-linecap:round;stroke-linejoin:round;stroke-opacity:0.501961;paint-order:stroke fill markers"
         x="94.074028"
         y="163.19713"
         id="text15"
         inkscape:label="Symbol L4"
         transform="translate(-1.0956815e-6)"><tspan
           sodipodi:role="line"
           id="tspan15"
           style="fill:#ffffff;stroke:none;stroke-width:5.12169"
           x="94.074028"
           y="163.19713">L4</tspan></text>
    </g>
    <g
       id="rect1"
       inkscape:label="Style - Transparent"
       style="display:inline">
      <path
         style="color:#000000;display:inline;fill:#808080;fill-opacity:0.501961;stroke-linecap:round;stroke-linejoin:round;-inkscape-stroke:none;paint-order:stroke fill markers"
         d="m 89.904297,125.64063 c -3.218298,0 -5.878906,2.50209 -5.878906,5.63085 v 40.85743 c 0,3.12876 2.660608,5.6289 5.878906,5.6289 h 43.009763 c 3.2183,0 5.88086,-2.50014 5.88086,-5.6289 v -40.85743 c 0,-3.12876 -2.66256,-5.63085 -5.88086,-5.63085 z m 0,1.77343 h 43.009763 c 2.31411,0 4.10742,1.73062 4.10742,3.85742 v 40.85743 c 0,2.1268 -1.79331,3.85546 -4.10742,3.85546 H 89.904297 c -2.314106,0 -4.105469,-1.72866 -4.105469,-3.85546 v -40.85743 c 0,-2.1268 1.791363,-3.85742 4.105469,-3.85742 z"
         id="path4"
         inkscape:label="Outline" />
      <path
         style="color:#000000;display:inline;fill:#ffffff;stroke-linecap:round;stroke-linejoin:round;-inkscape-stroke:none;paint-order:stroke fill markers"
         d="m 89.904938,126.52783 h 43.009572 c 2.76621,0 4.99315,2.11551 4.99315,4.7433 v 40.85744 c 0,2.62779 -2.22694,4.7433 -4.99315,4.7433 H 89.904938 c -2.766204,0 -4.993149,-2.11551 -4.993149,-4.7433 v -40.85744 c 0,-2.62779 2.226945,-4.7433 4.993149,-4.7433 z"
         id="path5"
         inkscape:label="Color" />
      <text
         xml:space="preserve"
         style="font-weight:500;font-size:32.5227px;line-height:0;font-family:'open sans';-inkscape-font-specification:'open sans Medium';letter-spacing:-1.01634px;word-spacing:0px;display:none;fill:#808080;stroke:none;stroke-width:5.12169;stroke-linecap:round;stroke-linejoin:round;stroke-opacity:0.501961;paint-order:stroke fill markers"
         x="94.269936"
         y="163.19713"
         id="text1"
         inkscape:label="Symbol L5"><tspan
           sodipodi:role="line"
           id="tspan1"
           style="stroke:none;stroke-width:5.12169"
           x="0"
           y="0">L5</tspan></text>
      <text
         xml:space="preserve"
         style="font-weight:500;font-size:32.5227px;line-height:0;font-family:'open sans';-inkscape-font-specification:'open sans Medium';letter-spacing:-1.01634px;word-spacing:0px;display:inline;fill:#808080;stroke:none;stroke-width:5.12169;stroke-linecap:round;stroke-linejoin:round;stroke-opacity:0.501961;paint-order:stroke fill markers"
         x="94.074028"
         y="163.19713"
         id="text11"
         inkscape:label="Symbol L4"><tspan
           sodipodi:role="line"
           id="tspan11"
           style="stroke:none;stroke-width:5.12169"
           x="94.074028"
           y="163.19713">L4</tspan></text>
    </g>
  </g>
</svg>
